<svg aria-hidden="true" style="position: absolute; width: 0; height: 0; overflow: hidden;" version="1.1" xmlns="http://www.w3.org/2000/svg" xmlns:xlink="http://www.w3.org/1999/xlink">
<defs>
<symbol id="icon-heart" viewBox="0 0 32 32">
<path d="M28.705 11.333c0-0.801-0.158-1.595-0.465-2.335s-0.756-1.414-1.323-1.981c-0.567-0.567-1.24-1.016-1.981-1.323s-1.535-0.465-2.337-0.465c-0.801 0-1.595 0.158-2.335 0.465-0.648 0.269-1.245 0.646-1.763 1.117l-0.217 0.207-1.414 1.413c-0.481 0.481-1.26 0.481-1.74 0l-1.414-1.413c-1.145-1.145-2.697-1.787-4.316-1.787s-3.171 0.643-4.316 1.787c-1.145 1.145-1.788 2.697-1.788 4.316s0.644 3.173 1.788 4.317l10.916 10.916 10.917-10.917 0.695 0.697 0.175 0.174-0.87-0.871c0.567-0.567 1.017-1.239 1.323-1.98s0.465-1.535 0.465-2.337zM31.167 11.333c0 1.125-0.222 2.24-0.653 3.279s-1.063 1.983-1.858 2.778l0.001 0.001-11.787 11.786c-0.481 0.481-1.26 0.481-1.74 0l-11.787-11.786c-1.606-1.606-2.508-3.786-2.508-6.058s0.902-4.45 2.508-6.056c1.606-1.606 3.786-2.508 6.058-2.508s4.45 0.902 6.056 2.508l0.543 0.543 0.543-0.543 0.304-0.291c0.728-0.66 1.565-1.189 2.475-1.566 1.039-0.431 2.153-0.653 3.278-0.653s2.239 0.222 3.279 0.653c1.039 0.431 1.984 1.061 2.779 1.857s1.426 1.74 1.857 2.779c0.431 1.039 0.653 2.153 0.653 3.278z"></path>
</symbol>
<symbol id="icon-chevron-down" viewBox="0 0 32 32">
<path d="M22.869 10.869c0.625-0.625 1.638-0.625 2.263 0s0.625 1.638 0 2.263l-8 8c-0.625 0.625-1.638 0.625-2.263 0l-8-8c-0.625-0.625-0.625-1.638 0-2.263s1.638-0.625 2.263 0l6.869 6.869 6.869-6.869z"></path>
</symbol>
<symbol id="icon-chevron" viewBox="0 0 32 32">
<path d="M22.869 10.869c0.625-0.625 1.638-0.625 2.263 0s0.625 1.638 0 2.263l-8 8c-0.625 0.625-1.638 0.625-2.263 0l-8-8c-0.625-0.625-0.625-1.638 0-2.263s1.638-0.625 2.263 0l6.869 6.869 6.869-6.869z"></path>
</symbol>
<symbol id="icon-eye-2" viewBox="0 0 32 32">
<path d="M16 3.733c5.306 0 9.366 3.029 12 5.839 1.332 1.42 2.348 2.834 3.031 3.892 0.342 0.53 0.603 0.976 0.781 1.292 0.089 0.158 0.159 0.285 0.206 0.375 0.024 0.045 0.042 0.081 0.055 0.106l0.022 0.044 0.001 0.002c0 0.001-0.015 0.009-1.431 0.717l1.431-0.716c0.197 0.394 0.223 0.849 0.075 1.258l-0.075 0.173-0.001 0.002-0.002 0.003c-0.001 0.003-0.003 0.007-0.005 0.011-0.004 0.008-0.009 0.017-0.016 0.030-0.013 0.026-0.031 0.062-0.055 0.106-0.047 0.090-0.117 0.217-0.206 0.375-0.178 0.317-0.439 0.762-0.781 1.292-0.683 1.058-1.7 2.472-3.031 3.892-2.634 2.81-6.694 5.839-12 5.839s-9.367-3.029-12.002-5.839c-1.332-1.42-2.348-2.834-3.031-3.892-0.343-0.53-0.603-0.976-0.781-1.292-0.089-0.158-0.157-0.285-0.205-0.375-0.024-0.045-0.043-0.081-0.056-0.106-0.006-0.012-0.012-0.022-0.016-0.030-0.002-0.004-0.003-0.008-0.005-0.011l-0.002-0.003-0.002-0.002c-0.225-0.45-0.225-0.981 0-1.431l1.431 0.716c-1.413-0.706-1.431-0.716-1.431-0.717l0.002-0.002 0.022-0.044c0.013-0.026 0.033-0.061 0.056-0.106 0.047-0.090 0.116-0.217 0.205-0.375 0.178-0.317 0.439-0.762 0.781-1.292 0.683-1.058 1.7-2.472 3.031-3.892 2.634-2.81 6.696-5.839 12.002-5.839zM16 6.933c-4.027 0-7.302 2.305-9.667 4.828-1.168 1.246-2.068 2.499-2.677 3.441-0.196 0.303-0.36 0.572-0.492 0.797 0.132 0.225 0.296 0.496 0.492 0.8 0.608 0.942 1.508 2.195 2.677 3.44 2.366 2.523 5.64 4.827 9.667 4.827s7.3-2.303 9.666-4.827c1.168-1.246 2.068-2.499 2.676-3.44 0.196-0.304 0.358-0.575 0.491-0.8-0.132-0.224-0.295-0.494-0.491-0.797-0.608-0.942-1.508-2.195-2.676-3.441-2.365-2.523-5.638-4.828-9.666-4.828z"></path>
<path d="M18.4 16c0-1.325-1.075-2.4-2.4-2.4s-2.4 1.075-2.4 2.4c0 1.325 1.075 2.4 2.4 2.4s2.4-1.075 2.4-2.4zM21.6 16c0 3.093-2.507 5.6-5.6 5.6s-5.6-2.507-5.6-5.6c0-3.093 2.507-5.6 5.6-5.6s5.6 2.507 5.6 5.6z"></path>
</symbol>
<symbol id="icon-close" viewBox="0 0 32 32">
<path d="M23.116 7.116c0.488-0.488 1.279-0.488 1.768 0s0.488 1.279 0 1.768l-16 16c-0.488 0.488-1.279 0.488-1.768 0s-0.488-1.279 0-1.768l16-16z"></path>
<path d="M7.116 7.116c0.488-0.488 1.279-0.488 1.768 0l16 16c0.488 0.488 0.488 1.279 0 1.768s-1.279 0.488-1.768 0l-16-16c-0.488-0.488-0.488-1.279 0-1.768z"></path>
</symbol>
<symbol id="icon-clock" viewBox="0 0 32 32">
<path d="M28.134 15.999c-0-6.701-5.433-12.133-12.134-12.133s-12.133 5.432-12.133 12.133c0 6.701 5.432 12.134 12.133 12.134s12.134-5.433 12.134-12.134zM30.534 15.999c0 8.027-6.508 14.534-14.534 14.534s-14.533-6.508-14.533-14.534c0-8.026 6.507-14.533 14.533-14.533s14.534 6.507 14.534 14.533z"></path>
<path d="M14.8 8c0-0.663 0.537-1.2 1.2-1.2s1.2 0.537 1.2 1.2v7.258l4.67 2.336c0.592 0.296 0.832 1.017 0.536 1.609s-1.017 0.833-1.609 0.537l-5.333-2.667c-0.407-0.203-0.664-0.619-0.664-1.073v-8z"></path>
</symbol>
<symbol id="icon-eye-off" viewBox="0 0 32 32">
<path d="M7.108 6.808c0.702-0.536 1.707-0.402 2.244 0.3s0.401 1.707-0.302 2.244c-2.377 1.815-4.375 4.076-5.884 6.652 0.132 0.224 0.296 0.493 0.491 0.795 0.608 0.942 1.509 2.195 2.677 3.441 2.362 2.52 5.629 4.818 9.648 4.825 2.521-0.043 4.963-0.888 6.969-2.417 0.703-0.535 1.707-0.4 2.242 0.303s0.4 1.707-0.303 2.242c-2.551 1.944-5.657 3.021-8.864 3.073h-0.025c-5.306 0-9.367-3.029-12.002-5.839-1.332-1.42-2.348-2.834-3.031-3.892-0.343-0.53-0.603-0.976-0.781-1.292-0.089-0.158-0.157-0.285-0.205-0.375-0.024-0.045-0.043-0.081-0.056-0.106-0.006-0.012-0.012-0.022-0.016-0.030-0.002-0.004-0.003-0.008-0.005-0.011l-0.002-0.003-0.002-0.001c-0.232-0.465-0.224-1.014 0.022-1.472 1.766-3.292 4.215-6.169 7.184-8.436zM16 3.733c5.306 0 9.366 3.029 12 5.839 1.332 1.42 2.348 2.834 3.031 3.892 0.342 0.53 0.603 0.976 0.781 1.292 0.089 0.158 0.159 0.285 0.206 0.375 0.024 0.045 0.041 0.081 0.055 0.106l0.022 0.044 0.002 0.002c0 0.001-0.010 0.005-1.431 0.716l1.431-0.714c0.232 0.464 0.224 1.011-0.020 1.469l-0.33 0.602c-0.79 1.39-1.706 2.704-2.736 3.928-0.569 0.676-1.579 0.763-2.255 0.194s-0.763-1.577-0.194-2.253c0.849-1.009 1.605-2.091 2.269-3.228-0.132-0.224-0.295-0.492-0.489-0.794-0.608-0.942-1.508-2.195-2.676-3.441-2.366-2.523-5.639-4.828-9.666-4.828h-0.005l0.005-1.6v-0.523l-0.005 2.123c-0.818-0.002-1.634 0.092-2.431 0.278-0.86 0.201-1.72-0.333-1.922-1.194s0.332-1.72 1.192-1.922c1.037-0.243 2.1-0.363 3.166-0.361v-0.002zM12.083 12.002c0.646-0.602 1.659-0.565 2.261 0.081s0.567 1.659-0.080 2.261c-0.236 0.22-0.425 0.484-0.556 0.778s-0.202 0.612-0.208 0.934c-0.006 0.322 0.054 0.643 0.175 0.942s0.3 0.571 0.528 0.799c0.228 0.228 0.5 0.407 0.798 0.528s0.619 0.179 0.941 0.173c0.322-0.006 0.64-0.075 0.934-0.206s0.56-0.32 0.78-0.556c0.602-0.647 1.614-0.682 2.261-0.080s0.682 1.615 0.080 2.261c-0.513 0.55-1.132 0.991-1.819 1.297s-1.428 0.471-2.18 0.484c-0.752 0.013-1.498-0.125-2.195-0.406s-1.331-0.701-1.863-1.233c-0.532-0.532-0.951-1.165-1.233-1.862s-0.421-1.445-0.408-2.197c0.013-0.752 0.178-1.493 0.484-2.18s0.748-1.306 1.298-1.819z"></path>
<path d="M0.202 0.202c0.625-0.625 1.638-0.625 2.263 0l29.333 29.333c0.625 0.625 0.625 1.638 0 2.263s-1.638 0.625-2.262 0l-29.333-29.333c-0.625-0.625-0.625-1.638 0-2.263z"></path>
</symbol>
<symbol id="icon-arrow-outward" viewBox="0 0 32 32">
<path d="M21.333 11.2l-11.867 11.867q-0.367 0.367-0.933 0.367t-0.933-0.367-0.367-0.933 0.367-0.933l11.867-11.867h-10.133q-0.567 0-0.95-0.383t-0.383-0.95 0.383-0.95 0.95-0.383h13.333q0.567 0 0.95 0.383t0.383 0.95v13.333q0 0.567-0.383 0.95t-0.95 0.383-0.95-0.383-0.383-0.95v-10.133z"></path>
</symbol>
<symbol id="icon-check" viewBox="0 0 40 32">
<path d="M5 11l-5 5 15 15 25-25-5-5-20 20-10-10z"></path>
</symbol>
<symbol id="icon-heart-hover" viewBox="0 0 32 32">
<path stroke-linejoin="round" stroke-linecap="round" stroke-miterlimit="4" stroke-width="2.4615" d="M27.787 6.147c-0.681-0.681-1.49-1.222-2.379-1.591s-1.844-0.559-2.807-0.559-1.917 0.19-2.807 0.559c-0.89 0.369-1.699 0.909-2.38 1.591l-1.413 1.413-1.413-1.413c-1.376-1.376-3.241-2.148-5.187-2.148s-3.811 0.773-5.187 2.148c-1.376 1.376-2.148 3.241-2.148 5.187s0.773 3.811 2.148 5.187l11.787 11.787 11.787-11.787c0.681-0.681 1.222-1.49 1.591-2.38s0.559-1.844 0.559-2.807-0.19-1.917-0.559-2.807c-0.369-0.89-0.909-1.699-1.591-2.38z"></path>
</symbol>
<symbol id="icon-question" viewBox="0 0 19 32">
<path d="M4.706 10c0-2.206 1.688-4 3.765-4h1.882c2.076 0 3.765 1.794 3.765 4v0.225c0 1.363-0.653 2.631-1.729 3.362l-2.482 1.694c-0.729 0.498-1.328 1.182-1.744 1.99s-0.633 1.714-0.633 2.635v0.094c0 1.106 0.841 2 1.882 2s1.882-0.894 1.882-2v-0.088c0-0.512 0.247-0.987 0.647-1.262l2.482-1.694c2.153-1.475 3.459-4.006 3.459-6.731v-0.225c0-4.419-3.371-8-7.529-8h-1.882c-4.159 0-7.529 3.581-7.529 8 0 1.106 0.841 2 1.882 2s1.882-0.894 1.882-2zM9.412 30c0.624 0 1.223-0.263 1.664-0.732s0.689-1.105 0.689-1.768c0-0.663-0.248-1.299-0.689-1.768s-1.040-0.732-1.664-0.732-1.223 0.263-1.664 0.732c-0.441 0.469-0.689 1.105-0.689 1.768s0.248 1.299 0.689 1.768 1.040 0.732 1.664 0.732z"></path>
</symbol>
<symbol id="icon-star" viewBox="0 0 32 32">
<path stroke-linejoin="miter" stroke-linecap="butt" stroke-miterlimit="4" stroke-width="2.4" d="M19.6 9.395c0.318 0.603 0.898 1.024 1.57 1.141l7.6 1.313-5.375 5.535c-0.416 0.428-0.637 1.003-0.621 1.592l0.022 0.254 1.098 7.635-6.922-3.402-0.234-0.1c-0.476-0.169-0.996-0.169-1.473 0l-0.234 0.1-6.924 3.402 1.1-7.635c0.085-0.591-0.074-1.187-0.434-1.654l-0.166-0.191-5.377-5.535 7.602-1.313c0.588-0.102 1.106-0.437 1.439-0.924l0.131-0.217 3.6-6.822 3.6 6.822z"></path>
</symbol>
<symbol id="icon-user" viewBox="0 0 32 32">
<path d="M16 5.333c1.415 0 2.771 0.562 3.771 1.562s1.562 2.357 1.562 3.771-0.562 2.771-1.562 3.771c-1 1-2.357 1.562-3.771 1.562s-2.771-0.562-3.771-1.562c-1-1-1.562-2.357-1.562-3.771s0.562-2.771 1.562-3.771c1-1 2.357-1.562 3.771-1.562zM16 18.667c5.893 0 10.667 2.387 10.667 5.333v2.667h-21.333v-2.667c0-2.947 4.773-5.333 10.667-5.333z"></path>
</symbol>
<symbol id="icon-users" viewBox="0 0 32 32">
<path d="M19.043 22.529l-0.548 2.044-14.306-3.833 0.548-2.044c0 0 1.095-4.087 8.248-2.171s6.058 6.004 6.058 6.004zM18.067 11.863c0.19-0.707 0.165-1.455-0.070-2.149s-0.671-1.302-1.252-1.747c-0.581-0.446-1.281-0.709-2.012-0.757s-1.459 0.122-2.094 0.488c-0.634 0.366-1.146 0.912-1.469 1.569s-0.446 1.395-0.35 2.121c0.096 0.726 0.404 1.407 0.887 1.958s1.118 0.946 1.825 1.135c0.949 0.254 1.959 0.121 2.81-0.37s1.471-1.3 1.725-2.248zM20.077 18.425c0.498 0.654 0.846 1.41 1.021 2.214s0.171 1.636-0.011 2.438l-0.548 2.044 4.087 1.095 0.548-2.044c0 0 0.994-3.709-5.097-5.747zM21.58 8.971c-0.702-0.192-1.447-0.166-2.134 0.074 0.388 1.034 0.443 2.163 0.158 3.229s-0.898 2.017-1.751 2.718c0.475 0.552 1.106 0.947 1.811 1.131 0.948 0.254 1.959 0.121 2.81-0.37s1.471-1.3 1.725-2.248c0.254-0.949 0.121-1.959-0.37-2.81s-1.3-1.471-2.248-1.725z"></path>
</symbol>
</defs>
</svg>
